<?xml version="1.0" encoding="iso-8859-1"?>
<!-- Uploaded to: SVG Repo, www.svgrepo.com, Generator: SVG Repo Mixer Tools -->
<!DOCTYPE svg PUBLIC "-//W3C//DTD SVG 1.1//EN" "http://www.w3.org/Graphics/SVG/1.1/DTD/svg11.dtd">
<svg height="800px" width="800px" version="1.1" id="Capa_1" xmlns="http://www.w3.org/2000/svg" xmlns:xlink="http://www.w3.org/1999/xlink" 
	 viewBox="0 0 465.672 465.672" xml:space="preserve">
<path style="fill:#000;" d="M456.083,293.47l-3.16,2.665c-6.041,5.095-13.231,8.036-20.602,8.842v-60.901h33.351v-9h-33.351
	v-2.603c0-8.878-5.862-16.259-13.997-18.518v-17.034c3.163,0.052,6.328,0.08,9.497,0.08c2.485,0,4.5-2.015,4.5-4.5
	s-2.015-4.5-4.5-4.5c-15.25,0-30.426-0.623-45.497-1.836v-5.923c0-2.485-2.015-4.5-4.5-4.5s-4.5,2.015-4.5,4.5v5.124
	c-21.266-2.057-42.3-5.324-63-9.781v-6.433c0-2.485-2.015-4.5-4.5-4.5s-4.5,2.015-4.5,4.5v4.415
	c-7.856-1.832-15.666-3.817-23.414-5.994c-12.851-3.61-26.147-5.604-39.586-5.971v-5.65c0-2.485-2.015-4.5-4.5-4.5
	s-4.5,2.015-4.5,4.5v5.65c-13.439,0.367-26.736,2.361-39.587,5.971c-7.748,2.177-15.558,4.163-23.413,5.994v-4.415
	c0-2.485-2.015-4.5-4.5-4.5s-4.5,2.015-4.5,4.5v6.433c-20.701,4.457-41.734,7.724-63,9.781v-5.124c0-2.485-2.015-4.5-4.5-4.5
	s-4.5,2.015-4.5,4.5v5.923C70.253,187.377,55.077,188,39.827,188c-2.485,0-4.5,2.015-4.5,4.5s2.015,4.5,4.5,4.5
	c3.169,0,6.334-0.028,9.497-0.08v17.034c-8.135,2.259-13.997,9.64-13.997,18.518v2.603H0v9h35.327v60.733
	c-6.902-1-13.593-3.886-19.269-8.673l-2.492-2.102L0,302.413l4.729,7.658l8.12-5.016c16.577,12.144,38.995,12.22,55.642,0.224
	c16.545,11.92,38.789,11.922,55.334,0c16.542,11.921,38.789,11.923,55.333,0c16.545,11.922,38.79,11.922,55.333,0
	c16.545,11.92,38.789,11.922,55.334,0c8.271,5.961,17.969,8.94,27.667,8.94c9.697,0,19.395-2.979,27.666-8.94
	c16.545,11.922,38.79,11.922,55.333,0c16.416,11.827,38.446,11.917,54.948,0.275l3.87,3.869l6.363-6.363L456.083,293.47z
	 M409.324,196.698v16.394c-9.03-0.293-18.033-0.8-27-1.523V195.19C391.291,195.9,400.292,196.41,409.324,196.698z M373.324,210.772
	c-9.043-0.875-18.047-1.964-27-3.274v-16.32c8.955,1.289,17.957,2.365,27,3.226V210.772z M337.324,189.809v16.3
	c-9.059-1.479-18.062-3.179-27-5.102v-16.214C319.266,186.685,328.269,188.355,337.324,189.809z M301.324,182.811v16.174
	c-7.86-1.832-15.668-3.828-23.413-6.004c-1.19-0.334-2.389-0.634-3.587-0.941v-16.105c0.383,0.104,0.769,0.195,1.151,0.302
	C284.025,178.639,292.647,180.822,301.324,182.811z M265.324,173.759v16.246c-8.873-1.741-17.901-2.748-27-2.996v-16.407
	C247.431,170.864,256.467,171.915,265.324,173.759z M229.324,187.009c-9.099,0.248-18.128,1.255-27,2.996v-16.246
	c8.857-1.844,17.893-2.894,27-3.157V187.009z M192.172,176.237c0.382-0.107,0.769-0.198,1.152-0.302v16.105
	c-1.198,0.307-2.397,0.607-3.587,0.941c-7.745,2.176-15.553,4.172-23.413,6.004V182.81
	C175.001,180.822,183.622,178.639,192.172,176.237z M157.324,201.006c-8.938,1.924-17.941,3.624-27,5.102v-16.3
	c9.055-1.454,18.058-3.124,27-5.016V201.006z M121.324,191.178v16.32c-8.953,1.31-17.957,2.399-27,3.274v-16.368
	C103.368,193.543,112.37,192.467,121.324,191.178z M85.324,195.19v16.379c-8.967,0.722-17.97,1.229-27,1.523v-16.394
	C67.357,196.41,76.358,195.9,85.324,195.19z M182.059,296.135l-2.901-2.446l-2.901,2.446c-14.351,12.104-35.182,12.104-49.53,0
	l-2.901-2.446l-2.901,2.446c-10.923,9.213-25.601,11.405-38.318,6.592c3.88-31.341,30.875-55.452,62.81-55.452
	c16.687,0,32.434,6.435,44.34,18.118c10.906,10.702,17.455,24.704,18.722,39.784C199.137,305.58,189.683,302.566,182.059,296.135z
	 M348.059,296.135l-2.901-2.446l-2.901,2.446c-14.351,12.104-35.182,12.104-49.53,0l-2.901-2.446l-2.901,2.446
	c-7.987,6.736-17.981,9.718-27.749,8.956c1.288-15.081,7.861-29.079,18.782-39.765c11.899-11.641,27.624-18.052,44.278-18.052
	c32.193,0,59.195,24.305,62.863,55.909C372.684,307.385,358.618,305.042,348.059,296.135z M400.49,293.689l-2.901,2.446
	c-1.276,1.077-2.606,2.053-3.976,2.938c-5.533-34.595-35.659-60.798-71.379-60.798c-19.021,0-36.981,7.322-50.572,20.618
	c-12.234,11.97-19.688,27.583-21.358,44.433c-4.61-1.501-9.003-3.893-12.912-7.191l-2.901-2.446l-2.901,2.446
	c-4.275,3.606-9.128,6.129-14.211,7.586c-1.588-16.963-9.031-32.693-21.32-44.752c-13.599-13.345-31.585-20.694-50.644-20.694
	c-35.329,0-65.367,25.839-71.248,59.996c-0.948-0.664-1.875-1.376-2.775-2.135l-2.901-2.446l-2.901,2.446
	c-6.221,5.247-13.661,8.216-21.262,8.913v-72.575c0-5.512,4.468-10.107,9.959-10.244c47.064-1.174,93.456-8.1,137.887-20.584
	c13.489-3.791,27.503-5.713,41.651-5.713c14.147,0,28.161,1.922,41.651,5.713c44.431,12.484,90.822,19.41,137.887,20.584
	c5.491,0.137,9.959,4.732,9.959,10.244v72.431c-7.135-0.907-14.073-3.829-19.93-8.769L400.49,293.689z"/>
</svg>